<svg width="110" height="110" viewBox="0 0 110 110" fill="none" xmlns="http://www.w3.org/2000/svg">
<path d="M55.1228 28.2253C55.4911 23.6635 56.3259 14.5658 67.3504 14.5658H91.5603C96.6429 14.5658 99.442 12.5441 99.442 8.96718V5.77909C99.442 2.61692 101.725 0.0509033 104.721 0.0509033C107.717 0.0509033 110 2.61692 110 5.77909V15.2397C110 26.3591 104.721 31.3097 93.5982 31.3097H68.9219C61.5313 31.3097 60.8192 35.1198 60.8192 38.3339C60.8192 38.6708 60.7946 38.9818 60.7701 39.2929C60.5982 42.481 58.0938 45.047 55.0246 45.047C51.9554 45.047 49.4509 42.5069 49.279 39.2929C49.2545 38.9818 49.2299 38.6708 49.2299 38.3339C49.2299 35.1458 48.4933 31.3097 41.1272 31.3097H16.4018C5.27902 31.3097 0 26.3591 0 15.2397V5.77909C0 2.61692 2.30804 0.0509033 5.30357 0.0509033C8.29911 0.0509033 10.5826 2.61692 10.5826 5.77909V8.96718C10.5826 12.5441 13.3817 14.5658 18.4643 14.5658H42.6741C53.6741 14.5658 54.5335 23.6635 54.9018 28.2253H55.1228ZM55 109.949C57.8237 109.949 60.2545 108.135 61.3103 105.724C61.5804 105.258 85.1518 61.765 85.4219 61.2984C88.3438 56.2182 84.6362 49.8161 78.7433 49.8161C75.3304 49.8161 73.0223 51.475 71.4263 55.0778L55 85.5849L38.5737 55.0778C37.0022 51.475 34.6696 49.8161 31.2567 49.8161C25.3638 49.8161 21.6562 56.1923 24.5781 61.2984C24.8482 61.7909 48.4196 105.258 48.6897 105.724C49.7455 108.135 52.1763 109.949 55 109.949Z" fill="white"/>
</svg>
